<mxfile host="app.diagrams.net" modified="2023-04-15T08:54:01.459Z" agent="Mozilla/5.0 (Windows NT 10.0; Win64; x64) AppleWebKit/537.36 (KHTML, like Gecko) Chrome/111.0.0.0 Safari/537.36 OPR/97.0.0.0 (Edition Yx 02)" etag="KZrOGdQSSMOx_9csVGLF" version="21.1.4" type="google">
  <diagram name="Страница 1" id="LbMuvB2Quwo6SmR-2pkd">
    <mxGraphModel grid="1" page="1" gridSize="10" guides="1" tooltips="1" connect="1" arrows="1" fold="1" pageScale="1" pageWidth="827" pageHeight="1169" math="0" shadow="0">
      <root>
        <mxCell id="0" />
        <mxCell id="1" parent="0" />
        <mxCell id="iIzAj16JPLTFreSghhtD-1" value="Блок-схема алгоритма метода, возвращающего количество элементов в строковом массиве array, длина которых меньше или равна заданной len&lt;br&gt;&lt;div style=&quot;color: rgb(212, 212, 212); background-color: rgb(30, 30, 30); font-family: Consolas, &amp;quot;Courier New&amp;quot;, monospace; font-size: 14px; line-height: 19px;&quot;&gt;int &lt;span style=&quot;color: #dcdcaa;&quot;&gt;GetNumberSpecElements&lt;/span&gt;(&lt;span style=&quot;color: #569cd6;&quot;&gt;string&lt;/span&gt;[] &lt;span style=&quot;color: #9cdcfe;&quot;&gt;array&lt;/span&gt;, &lt;span style=&quot;color: #569cd6;&quot;&gt;int&lt;/span&gt; &lt;span style=&quot;color: #9cdcfe;&quot;&gt;len&lt;/span&gt;)&lt;/div&gt;" style="text;html=1;strokeColor=none;fillColor=none;align=center;verticalAlign=middle;whiteSpace=wrap;rounded=0;" vertex="1" parent="1">
          <mxGeometry x="205" y="50" width="425" height="80" as="geometry" />
        </mxCell>
        <mxCell id="iIzAj16JPLTFreSghhtD-3" value="&lt;font style=&quot;vertical-align: inherit;&quot;&gt;&lt;font style=&quot;vertical-align: inherit;&quot;&gt;Start&lt;/font&gt;&lt;/font&gt;" style="rounded=1;whiteSpace=wrap;html=1;" vertex="1" parent="1">
          <mxGeometry x="320" y="170" width="120" height="40" as="geometry" />
        </mxCell>
        <mxCell id="iIzAj16JPLTFreSghhtD-4" style="edgeStyle=orthogonalEdgeStyle;rounded=0;orthogonalLoop=1;jettySize=auto;html=1;" edge="1" parent="1" target="iIzAj16JPLTFreSghhtD-13">
          <mxGeometry relative="1" as="geometry">
            <mxPoint x="382" y="210" as="sourcePoint" />
          </mxGeometry>
        </mxCell>
        <mxCell id="iIzAj16JPLTFreSghhtD-9" style="edgeStyle=orthogonalEdgeStyle;rounded=0;orthogonalLoop=1;jettySize=auto;html=1;" edge="1" parent="1">
          <mxGeometry relative="1" as="geometry">
            <mxPoint x="381" y="451" as="sourcePoint" />
            <mxPoint x="381" y="541" as="targetPoint" />
            <Array as="points">
              <mxPoint x="381" y="531" />
            </Array>
          </mxGeometry>
        </mxCell>
        <mxCell id="iIzAj16JPLTFreSghhtD-10" value="True" style="edgeLabel;html=1;align=center;verticalAlign=middle;resizable=0;points=[];" connectable="0" vertex="1" parent="iIzAj16JPLTFreSghhtD-9">
          <mxGeometry x="-0.2485" relative="1" as="geometry">
            <mxPoint as="offset" />
          </mxGeometry>
        </mxCell>
        <mxCell id="iIzAj16JPLTFreSghhtD-32" style="edgeStyle=orthogonalEdgeStyle;rounded=0;orthogonalLoop=1;jettySize=auto;html=1;" edge="1" parent="1" source="iIzAj16JPLTFreSghhtD-11" target="iIzAj16JPLTFreSghhtD-31">
          <mxGeometry relative="1" as="geometry">
            <mxPoint x="452" y="930" as="targetPoint" />
            <Array as="points">
              <mxPoint x="552" y="410" />
              <mxPoint x="552" y="930" />
            </Array>
          </mxGeometry>
        </mxCell>
        <mxCell id="iIzAj16JPLTFreSghhtD-11" value="&lt;font style=&quot;vertical-align: inherit;&quot;&gt;&lt;font style=&quot;vertical-align: inherit;&quot;&gt;i&amp;lt;=array.Length-1&lt;/font&gt;&lt;/font&gt;" style="rhombus;whiteSpace=wrap;html=1;" vertex="1" parent="1">
          <mxGeometry x="316" y="370" width="130" height="80" as="geometry" />
        </mxCell>
        <mxCell id="iIzAj16JPLTFreSghhtD-12" style="edgeStyle=orthogonalEdgeStyle;rounded=0;orthogonalLoop=1;jettySize=auto;html=1;entryX=0.5;entryY=0;entryDx=0;entryDy=0;" edge="1" parent="1" source="iIzAj16JPLTFreSghhtD-13" target="iIzAj16JPLTFreSghhtD-11">
          <mxGeometry relative="1" as="geometry" />
        </mxCell>
        <mxCell id="iIzAj16JPLTFreSghhtD-13" value="&lt;font style=&quot;vertical-align: inherit;&quot;&gt;&lt;font style=&quot;vertical-align: inherit;&quot;&gt;&lt;font style=&quot;vertical-align: inherit;&quot;&gt;&lt;font style=&quot;vertical-align: inherit;&quot;&gt;i:=0&lt;br&gt;number:=0&lt;br&gt;&lt;/font&gt;&lt;/font&gt;&lt;/font&gt;&lt;/font&gt;" style="rounded=0;whiteSpace=wrap;html=1;" vertex="1" parent="1">
          <mxGeometry x="322" y="270" width="120" height="50" as="geometry" />
        </mxCell>
        <mxCell id="iIzAj16JPLTFreSghhtD-14" value="&lt;font style=&quot;vertical-align: inherit;&quot;&gt;&lt;font style=&quot;vertical-align: inherit;&quot;&gt;Еnd&lt;/font&gt;&lt;/font&gt;" style="rounded=1;whiteSpace=wrap;html=1;" vertex="1" parent="1">
          <mxGeometry x="318" y="1000" width="120" height="60" as="geometry" />
        </mxCell>
        <mxCell id="iIzAj16JPLTFreSghhtD-20" value="" style="rhombus;whiteSpace=wrap;html=1;" vertex="1" parent="1">
          <mxGeometry x="292" y="540" width="180" height="90" as="geometry" />
        </mxCell>
        <mxCell id="iIzAj16JPLTFreSghhtD-28" style="edgeStyle=orthogonalEdgeStyle;rounded=0;orthogonalLoop=1;jettySize=auto;html=1;" edge="1" parent="1" source="iIzAj16JPLTFreSghhtD-21" target="iIzAj16JPLTFreSghhtD-26">
          <mxGeometry relative="1" as="geometry">
            <mxPoint x="552" y="820" as="targetPoint" />
            <Array as="points">
              <mxPoint x="522" y="585" />
              <mxPoint x="522" y="820" />
            </Array>
          </mxGeometry>
        </mxCell>
        <mxCell id="iIzAj16JPLTFreSghhtD-21" value="array[i]&amp;lt;=len" style="text;html=1;strokeColor=none;fillColor=none;align=center;verticalAlign=middle;whiteSpace=wrap;rounded=0;" vertex="1" parent="1">
          <mxGeometry x="282" y="570" width="190" height="30" as="geometry" />
        </mxCell>
        <mxCell id="iIzAj16JPLTFreSghhtD-27" style="edgeStyle=orthogonalEdgeStyle;rounded=0;orthogonalLoop=1;jettySize=auto;html=1;entryX=0.5;entryY=0;entryDx=0;entryDy=0;" edge="1" parent="1" source="iIzAj16JPLTFreSghhtD-22" target="iIzAj16JPLTFreSghhtD-26">
          <mxGeometry relative="1" as="geometry" />
        </mxCell>
        <mxCell id="iIzAj16JPLTFreSghhtD-22" value="" style="rounded=0;whiteSpace=wrap;html=1;" vertex="1" parent="1">
          <mxGeometry x="326" y="676" width="120" height="60" as="geometry" />
        </mxCell>
        <mxCell id="iIzAj16JPLTFreSghhtD-23" value="" style="endArrow=classic;html=1;rounded=0;exitX=0.5;exitY=1;exitDx=0;exitDy=0;" edge="1" parent="1" source="iIzAj16JPLTFreSghhtD-20">
          <mxGeometry width="50" height="50" relative="1" as="geometry">
            <mxPoint x="422" y="570" as="sourcePoint" />
            <mxPoint x="382" y="680" as="targetPoint" />
          </mxGeometry>
        </mxCell>
        <mxCell id="iIzAj16JPLTFreSghhtD-24" value="True" style="edgeLabel;html=1;align=center;verticalAlign=middle;resizable=0;points=[];" connectable="0" vertex="1" parent="1">
          <mxGeometry x="382" y="645" as="geometry" />
        </mxCell>
        <mxCell id="iIzAj16JPLTFreSghhtD-25" value="number:=number+1" style="text;html=1;strokeColor=none;fillColor=none;align=center;verticalAlign=middle;whiteSpace=wrap;rounded=0;" vertex="1" parent="1">
          <mxGeometry x="312" y="691" width="140" height="30" as="geometry" />
        </mxCell>
        <mxCell id="iIzAj16JPLTFreSghhtD-30" style="edgeStyle=orthogonalEdgeStyle;rounded=0;orthogonalLoop=1;jettySize=auto;html=1;" edge="1" parent="1" source="iIzAj16JPLTFreSghhtD-26">
          <mxGeometry relative="1" as="geometry">
            <mxPoint x="382" y="350" as="targetPoint" />
            <Array as="points">
              <mxPoint x="272" y="810" />
              <mxPoint x="272" y="350" />
            </Array>
          </mxGeometry>
        </mxCell>
        <mxCell id="iIzAj16JPLTFreSghhtD-26" value="i:=i+1" style="rounded=0;whiteSpace=wrap;html=1;" vertex="1" parent="1">
          <mxGeometry x="326" y="780" width="120" height="60" as="geometry" />
        </mxCell>
        <mxCell id="iIzAj16JPLTFreSghhtD-29" value="False" style="edgeLabel;html=1;align=center;verticalAlign=middle;resizable=0;points=[];" connectable="0" vertex="1" parent="1">
          <mxGeometry x="502" y="584.9966666666668" as="geometry">
            <mxPoint x="-10" y="-2" as="offset" />
          </mxGeometry>
        </mxCell>
        <mxCell id="iIzAj16JPLTFreSghhtD-34" style="edgeStyle=orthogonalEdgeStyle;rounded=0;orthogonalLoop=1;jettySize=auto;html=1;entryX=0.5;entryY=0;entryDx=0;entryDy=0;" edge="1" parent="1" source="iIzAj16JPLTFreSghhtD-31" target="iIzAj16JPLTFreSghhtD-14">
          <mxGeometry relative="1" as="geometry">
            <Array as="points">
              <mxPoint x="377" y="1000" />
            </Array>
          </mxGeometry>
        </mxCell>
        <mxCell id="iIzAj16JPLTFreSghhtD-31" value="GetNumberSpecElements:=number" style="rounded=0;whiteSpace=wrap;html=1;" vertex="1" parent="1">
          <mxGeometry x="252" y="890" width="250" height="80" as="geometry" />
        </mxCell>
        <mxCell id="iIzAj16JPLTFreSghhtD-33" value="False" style="edgeLabel;html=1;align=center;verticalAlign=middle;resizable=0;points=[];" connectable="0" vertex="1" parent="1">
          <mxGeometry x="492" y="409.9966666666668" as="geometry">
            <mxPoint x="-10" y="-2" as="offset" />
          </mxGeometry>
        </mxCell>
      </root>
    </mxGraphModel>
  </diagram>
</mxfile>
